{"title":"The Daily Show  2011.06.14  J.J.Abrams","uid":6471223,"size":183394151,"categoryP":"video","categoryS":"tv_shows","magnet":"?xt=urn:btih:60d0a77f61f6676ecaa1401007eb3ba505ab65c5&amp;dn=The+Daily+Show++2011.06.14++J.J.Abrams&amp;tr=udp%3A%2F%2Ftracker.openbittorrent.com%3A80&amp;tr=udp%3A%2F%2Fopen.demonii.com%3A1337&amp;tr=udp%3A%2F%2Ftracker.coppersurfer.tk%3A6969&amp;tr=udp%3A%2F%2Fexodus.desync.com%3A6969","seeders":0,"leechers":0,"uploader":"Rudiandre","files":2,"time":1308147662,"description":"Republican hopefuls gather for their second debate, and J.J. Abrams talks about writing for TV.\n\n-----------------------------------------------------------------------------------------\n\nINFO\n\nComplete name: The.Daily.Show.2011.06.14.J.J.Abrams.WEBRip.XviD.avi\nFormat : AVI\nFormat/Info : Audio Video Interleave\nFile size : 175 MiB\nDuration : 21mn 27s\nOverall bit rate : 1 139 Kbps\nWriting application : MEncoder SVN-r31918\nWriting library : MPlayer\n\nVideo\nID : 0\nFormat : MPEG-4 Visual\nFormat profile : Advanced Simple@L5\nFormat settings, BVOP : 2\nFormat settings, QPel : No\nFormat settings, GMC : No warppoints\nFormat settings, Matrix : Default (H.263)\nCodec ID : XVID\nCodec ID/Hint : XviD\nDuration : 21mn 27s\nBit rate : 1 003 Kbps\nWidth : 624 pixels\nHeight : 352 pixels\nDisplay aspect ratio : 16:9\nFrame rate : 29.970 fps\nColor space : YUV\nChroma subsampling : 4:2:0\nBit depth : 8 bits\nScan type : Progressive\nCompression mode : Lossy\nBits/(Pixel*Frame) : 0.152\nStream size : 154 MiB (88%)\nWriting library : XviD 1.2.1 (UTC 2008-12-04)\n\nAudio\nID : 1\nFormat : MPEG Audio\nFormat version : Version 1\nFormat profile : Layer 3\nCodec ID : 55\nCodec ID/Hint : MP3\nDuration : 21mn 27s\nBit rate mode : Variable\nBit rate : 123 Kbps\nChannel(s) : 2 channels\nSampling rate : 44.1 KHz\nCompression mode : Lossy\nStream size : 18.9 MiB (11%)\nAlignment : Aligned on interleaves\nInterleave, duration : 26 ms (0.78 video frame)\nInterleave, preload duration : 580 ms","torrent":{"xt":"urn:btih:60d0a77f61f6676ecaa1401007eb3ba505ab65c5","amp;dn":"The+Daily+Show++2011.06.14++J.J.Abrams","amp;tr":["udp%3A%2F%2Ftracker.openbittorrent.com%3A80","udp%3A%2F%2Fopen.demonii.com%3A1337","udp%3A%2F%2Ftracker.coppersurfer.tk%3A6969","udp%3A%2F%2Fexodus.desync.com%3A6969"],"infoHash":"60d0a77f61f6676ecaa1401007eb3ba505ab65c5","infoHashBuffer":{"type":"Buffer","data":[96,208,167,127,97,246,103,110,202,161,64,16,7,235,59,165,5,171,101,197]},"announce":[],"urlList":[]}}